<svg xmlns="http://www.w3.org/2000/svg" viewBox="0 0 80 80" fill="none" aria-hidden="true">
  <defs>
    <clipPath id="circleClip">
      <circle cx="40" cy="40" r="39"/>
    </clipPath>
  </defs>
  <g clip-path="url(#circleClip)">
    <circle cx="40" cy="40" r="40" fill="white"/>
    <circle cx="40" cy="40" r="3" fill="#4a5568"/>
    <!-- 8 figures: head (circle) + arms (arc), different colors -->
    <g transform="translate(40, 40)">
      <g transform="rotate(0) translate(0, -26)">
        <circle r="4" fill="#60a5fa"/>
        <path d="M-5 -3 Q0 4 5 -3" stroke="#60a5fa" stroke-width="2.5" fill="none" stroke-linecap="round"/>
      </g>
      <g transform="rotate(45) translate(0, -26)">
        <circle r="4" fill="#2563eb"/>
        <path d="M-5 -3 Q0 4 5 -3" stroke="#2563eb" stroke-width="2.5" fill="none" stroke-linecap="round"/>
      </g>
      <g transform="rotate(90) translate(0, -26)">
        <circle r="4" fill="#8b5cf6"/>
        <path d="M-5 -3 Q0 4 5 -3" stroke="#8b5cf6" stroke-width="2.5" fill="none" stroke-linecap="round"/>
      </g>
      <g transform="rotate(135) translate(0, -26)">
        <circle r="4" fill="#ec4899"/>
        <path d="M-5 -3 Q0 4 5 -3" stroke="#ec4899" stroke-width="2.5" fill="none" stroke-linecap="round"/>
      </g>
      <g transform="rotate(180) translate(0, -26)">
        <circle r="4" fill="#f97316"/>
        <path d="M-5 -3 Q0 4 5 -3" stroke="#f97316" stroke-width="2.5" fill="none" stroke-linecap="round"/>
      </g>
      <g transform="rotate(225) translate(0, -26)">
        <circle r="4" fill="#fb923c"/>
        <path d="M-5 -3 Q0 4 5 -3" stroke="#fb923c" stroke-width="2.5" fill="none" stroke-linecap="round"/>
      </g>
      <g transform="rotate(270) translate(0, -26)">
        <circle r="4" fill="#16a34a"/>
        <path d="M-5 -3 Q0 4 5 -3" stroke="#16a34a" stroke-width="2.5" fill="none" stroke-linecap="round"/>
      </g>
      <g transform="rotate(315) translate(0, -26)">
        <circle r="4" fill="#4ade80"/>
        <path d="M-5 -3 Q0 4 5 -3" stroke="#4ade80" stroke-width="2.5" fill="none" stroke-linecap="round"/>
      </g>
    </g>
  </g>
</svg>
